<?xml version="1.0" standalone="no"?>
<!DOCTYPE svg PUBLIC "-//W3C//DTD SVG 20010904//EN"
 "http://www.w3.org/TR/2001/REC-SVG-20010904/DTD/svg10.dtd">
<svg version="1.0" xmlns="http://www.w3.org/2000/svg"
 width="897.000000pt" height="845.000000pt" viewBox="0 0 897.000000 845.000000"
 preserveAspectRatio="xMidYMid meet">

<g transform="translate(0.000000,845.000000) scale(0.100000,-0.100000)"
fill="#000000" stroke="none">
<path d="M3800 8429 c-150 -23 -357 -114 -509 -224 -173 -125 -393 -346 -538
-540 -139 -185 -271 -429 -334 -617 -71 -210 -37 -403 101 -579 l50 -64 0
-172 0 -172 -61 -32 c-107 -57 -178 -167 -204 -316 -18 -101 -18 -157 0 -296
45 -347 176 -645 360 -824 52 -50 85 -91 85 -103 0 -42 72 -240 133 -365 78
-159 161 -299 278 -467 101 -145 111 -178 54 -178 -44 0 -81 -17 -100 -46 -8
-13 -35 -96 -59 -185 -25 -89 -49 -165 -53 -170 -4 -4 -230 -91 -502 -192
-507 -191 -543 -208 -557 -264 -7 -26 9 -21 -229 -77 -330 -77 -850 -214 -931
-245 -153 -59 -248 -140 -341 -288 -98 -158 -434 -975 -433 -1055 1 -36 36
-105 63 -123 41 -26 205 -90 434 -168 933 -318 1968 -534 2988 -621 643 -56
1339 -56 1995 0 806 68 1638 221 2442 449 386 110 875 279 966 335 44 27 76
99 68 150 -11 73 -166 466 -321 817 -144 327 -257 442 -516 527 -80 26 -950
248 -1065 271 -13 3 -24 15 -28 29 -14 56 -57 76 -561 265 -270 101 -494 186
-498 191 -4 4 -28 80 -53 169 -24 89 -51 172 -59 185 -19 29 -56 46 -100 46
-56 0 -47 34 43 163 227 326 362 594 417 825 10 39 22 72 27 72 21 0 133 120
184 196 134 201 217 452 246 745 26 261 -51 463 -211 548 l-61 32 0 171 0 172
43 55 c156 200 185 400 92 637 -87 220 -246 488 -403 674 -108 129 -350 362
-449 433 -384 273 -778 307 -1135 98 l-68 -40 -67 40 c-79 46 -196 93 -285
114 -82 20 -255 27 -338 14z m426 -1952 c199 -111 307 -114 499 -17 90 46 109
52 163 51 100 0 147 -27 269 -155 58 -61 153 -167 212 -236 58 -69 121 -139
139 -156 69 -65 195 -114 294 -114 l48 0 0 -176 0 -176 29 -29 c52 -51 94 -33
142 63 38 75 95 137 173 188 97 64 144 49 165 -49 15 -70 14 -124 -5 -248 -27
-186 -86 -355 -170 -490 -47 -75 -104 -133 -131 -133 -29 0 -83 -42 -102 -79
-10 -20 -21 -65 -24 -101 -7 -79 -46 -206 -98 -318 -143 -309 -449 -735 -723
-1005 -218 -216 -317 -257 -616 -257 -223 0 -349 31 -453 112 -414 321 -948
1109 -982 1450 -4 35 -11 77 -16 95 -12 38 -68 90 -107 99 -82 19 -203 217
-266 437 -35 121 -60 297 -53 383 11 149 62 179 175 104 77 -51 133 -114 171
-187 16 -33 37 -65 46 -73 28 -23 75 -16 102 14 22 26 23 33 23 200 l0 173 73
6 c150 11 234 59 349 196 140 168 362 402 405 428 80 47 183 47 269 0z m-576
-3790 l372 -418 -64 -77 c-388 -476 -523 -640 -526 -638 -1 2 -63 264 -138
582 l-135 579 53 198 c29 108 56 196 60 195 4 -2 174 -191 378 -421z m2118
226 l53 -198 -135 -579 c-75 -318 -137 -580 -138 -581 -3 -3 -224 265 -506
612 l-84 102 374 421 c205 231 375 420 378 420 3 0 29 -89 58 -197z m-1969 22
c140 -118 250 -167 445 -201 71 -13 136 -15 291 -11 173 4 213 8 300 31 130
34 220 79 324 163 46 37 96 77 110 88 14 11 -154 -185 -373 -435 -219 -250
-402 -455 -406 -455 -4 0 -187 205 -406 455 -219 250 -389 448 -378 440 12 -8
53 -42 93 -75z m480 -957 l91 -102 0 -535 c0 -299 -4 -531 -9 -526 -4 6 -63
84 -131 173 -153 206 -290 407 -364 539 l-58 102 184 225 c100 124 186 226
190 226 4 0 47 -46 97 -102z m711 -126 l182 -223 -58 -102 c-78 -138 -184
-295 -349 -517 -76 -102 -141 -189 -146 -195 -5 -5 -9 215 -9 526 l0 535 91
103 c50 56 95 101 99 99 4 -2 90 -103 190 -226z"/>
<path d="M3658 5442 c-59 -36 -72 -119 -27 -176 40 -51 131 -52 178 -2 46 49
35 141 -21 180 -29 21 -96 20 -130 -2z"/>
<path d="M5179 5432 c-25 -23 -33 -38 -36 -78 -5 -43 -2 -54 22 -82 91 -109
260 -5 200 122 -33 70 -129 89 -186 38z"/>
<path d="M4112 4595 c-28 -35 -28 -67 1 -99 36 -41 265 -100 382 -99 118 1
337 59 373 99 28 31 28 64 1 98 -27 35 -59 34 -195 -6 -142 -41 -224 -42 -349
-4 -49 15 -113 30 -141 33 -46 5 -52 3 -72 -22z"/>
<path d="M4154 4332 c-28 -10 -73 -32 -100 -50 -78 -50 -316 -254 -342 -292
-44 -65 -16 -176 36 -144 9 6 18 26 20 45 2 19 6 37 10 41 4 4 122 23 262 43
140 20 266 39 280 42 37 9 122 52 147 75 l22 20 33 -25 c39 -29 103 -62 138
-70 14 -3 139 -22 279 -42 140 -20 258 -38 263 -41 4 -3 8 -14 8 -24 0 -47 39
-82 66 -59 18 15 18 80 1 122 -25 59 -293 284 -403 338 -85 42 -155 44 -292
10 l-92 -24 -87 22 c-126 32 -188 35 -249 13z"/>
<path d="M4115 3895 c-40 -40 -30 -96 22 -123 31 -17 675 -17 706 0 52 27 62
83 22 123 l-24 25 -351 0 -351 0 -24 -25z"/>
<path d="M4355 3575 c-27 -26 -32 -70 -12 -96 23 -30 56 -39 147 -39 91 0 124
9 147 39 20 26 15 70 -12 96 -23 24 -31 25 -135 25 -104 0 -112 -1 -135 -25z"/>
</g>
</svg>
